PathFileType	4	(X/Y/Z)	C:\Users\°ÂÌØÂü\Desktop\20210112\bx_y_10_502-Unnamed.trc
DataRate	CameraRate	NumFrames	NumMarkers	Units	OrigDataRate	OrigDataStartFrame	OrigNumFrames
50.00	50.00	       6	0	mm	50.00	437	       499
Frame#	Time	
		

437	8.720	-683.90698	-28.69497	615.70306	-668.61743	201.54431	532.93396	-626.58124	276.91281	876.94507	-623.95984	-71.17783	868.48816	-570.50415	218.07214	1068.51453	-686.88654	-75.28078	1538.21521	-699.08173	284.48624	1538.11780	-720.03052	241.41382	578.97461	-658.42944	17.90809	518.70251	-764.25604	250.53346	506.73834	-716.19904	78.36974	216.19383	-604.40564	102.94032	1432.70166	-570.75110	211.35448	814.01489	-770.77820	221.85269	206.00580	-882.61060	296.06824	144.54037	-675.53595	54.74093	158.15746	-603.38763	19.24411	166.89418				-594.44916	222.35342	173.18752	-666.28607	298.75696	160.56355	-628.85419	306.46790	161.60780	-560.48834	261.39450	165.10135	-527.99475	304.39630	146.60587	-728.48938	97.54493	1845.71729	-710.12695	245.90263	646.02747				-518.03137	-72.36470	142.83281	-796.44653	171.81035	184.38652	-682.62408	138.83484	574.79248				-767.74731	-4.35878	208.40298	-794.57166	56.41177	175.14581	-754.39447	-34.12791	490.91351	-664.82092	-67.42209	162.87592	-876.05151	-78.64049	141.43311	-568.15259	-9.94919	1049.56482	-672.10492	-51.89013	717.62976	-560.42004	-39.88728	163.32314	-624.07227	-78.57613	158.52217	-771.67212	85.76909	1053.86938	-564.18909	-3.09968	801.62891	-711.06946	151.32591	216.22974	-703.78687	-25.26429	567.40454	-675.87598	172.16812	156.55478	
438	8.740	-683.85547	-28.68894	615.79211	-668.53308	201.42372	532.93286	-626.58032	276.52087	876.77899	-623.52789	-71.46291	868.67596	-570.43188	217.78621	1068.36963	-686.91364	-75.94793	1538.01587	-699.11731	283.99957	1537.81067	-719.70874	241.15981	578.97797	-658.51294	17.70832	518.44122	-764.26501	250.57925	506.86865	-716.19904	78.36974	216.19383	-604.18884	101.92390	1432.90918	-570.65039	211.23335	814.09967	-770.72107	221.83484	206.21162	-882.54413	296.10565	144.69302	-675.53595	54.74093	158.15746	-603.20490	19.08344	167.00366	-679.46948	80.35001	577.87231	-594.44916	222.35342	173.18752	-666.28607	298.75696	160.56355	-628.91003	306.48718	161.71501	-560.39990	261.26886	164.89034	-528.08289	304.50589	146.80527	-728.98102	96.94651	1845.52747	-709.95032	245.61064	645.87524				-517.97705	-72.20476	142.46793	-796.46240	171.82919	184.24719	-682.34204	138.58640	574.88617				-767.85931	-4.25331	208.45535	-794.57166	56.41177	175.14581	-754.56873	-34.01806	490.84732	-664.92426	-67.51515	162.74892	-876.13934	-78.71100	141.67271	-568.00958	-10.20319	1049.36292	-672.11462	-51.90381	717.56403	-560.42004	-39.88728	163.32314	-623.79144	-78.80524	158.89383	-771.57825	85.27119	1053.52502	-563.78699	-3.19821	801.77081	-711.03510	151.38846	216.30571	-703.82202	-25.45496	567.56555	-675.74799	172.15500	156.72205	
439	8.760	-683.97858	-29.32522	616.10760	-668.61743	201.54431	532.93396	-626.58051	276.58002	876.97168	-623.80664	-71.47630	868.46094	-570.68420	217.58385	1068.31982	-686.94836	-76.55045	1537.75732	-699.09332	283.61826	1538.09790	-719.78217	241.02745	578.87994	-658.50140	17.95200	518.44244	-764.13245	250.28027	506.43704	-716.39850	78.27924	216.23421	-603.79865	101.67063	1432.69836	-570.65039	211.23335	814.09967	-770.80188	221.79382	206.05690	-882.42035	296.20520	144.81044	-675.40009	54.61946	158.05573	-603.37366	19.09807	167.01276				-594.44916	222.35342	173.18752	-666.28607	298.75696	160.56355	-629.00671	306.51785	161.76173	-560.51642	261.34180	165.11980	-528.08679	304.23312	146.60699	-729.29578	96.56184	1845.41821	-710.06427	245.31345	645.59222	-677.25427	266.27939	748.15497	-517.87006	-72.08616	142.95981	-796.47552	171.69530	184.29604	-682.34204	138.58640	574.88617				-767.86182	-4.20326	208.50458	-794.65820	56.54593	175.14548	-754.43042	-34.11437	490.78262	-664.78094	-67.38115	162.74411	-876.02838	-78.54763	141.55200	-568.22852	-10.58872	1049.26233	-672.62842	-51.61847	717.05530	-560.50171	-39.98569	163.25211	-623.85382	-78.72701	158.82477	-771.79718	84.76485	1053.75342	-564.20789	-3.32371	801.78949	-711.06946	151.32591	216.22974	-703.82202	-25.45496	567.56555	-675.87598	172.16812	156.55478	
440	8.780	-684.69403	-29.61912	616.19843	-668.55841	201.38942	533.05701	-626.80066	276.22397	876.88397	-624.02179	-72.03142	868.68872	-570.51038	217.19116	1068.53931	-687.08521	-76.97414	1537.90942	-699.29669	283.05914	1538.31909	-719.99487	240.99149	578.90039	-658.39136	17.41223	518.79669	-764.18036	250.35805	506.61154	-716.25555	78.27130	216.42842	-603.82849	101.39831	1432.66040	-570.94110	210.80559	814.13983	-770.72601	221.74011	206.03845	-882.42468	295.98312	144.60002	-675.53595	54.74093	158.15746	-603.34973	19.26528	166.97270				-594.37781	222.32692	173.25752	-666.29565	298.73105	160.72098	-628.77386	306.36203	161.53383	-560.49329	261.23083	165.04427	-528.04333	304.33499	146.49161	-729.44531	96.13141	1845.27563	-710.25629	245.47028	645.86591	-677.58020	266.25705	748.47064	-517.96411	-72.10376	142.67348	-796.56451	171.66858	184.27567	-682.53137	138.12868	575.16321				-767.82501	-4.33603	208.35931	-794.60394	56.48943	175.11320	-754.70874	-34.18572	490.81018	-664.59515	-67.40460	163.00003	-876.05139	-78.44123	141.62697	-568.23871	-10.54996	1049.34802	-673.29712	-51.49761	716.65186	-560.42004	-39.88728	163.32314	-623.88843	-78.74813	158.66829	-771.76593	84.50703	1053.62854	-564.34869	-3.56878	801.66479	-711.03510	151.38846	216.30571	-704.44879	-25.79922	567.46698	-675.93005	172.36572	156.59540	
441	8.800	-684.69220	-30.02750	616.17981	-668.57446	201.32637	532.82397	-626.66266	275.88269	876.97882	-624.15295	-72.17853	868.63403	-570.43396	216.98035	1068.79053	-687.00208	-77.47736	1537.66650	-699.96661	281.89917	1538.22400	-719.88831	240.98732	578.75916	-658.76111	17.37657	518.59973	-764.17841	249.99867	506.72171	-716.18811	78.28912	216.25165	-604.23029	100.80816	1432.35535	-570.93640	210.83510	814.14795	-770.72925	221.82643	206.11501	-882.57764	296.19299	144.67506	-675.53595	54.74093	158.15746	-603.44250	19.25309	167.02371	-679.83478	79.33229	577.83881	-594.50781	222.38264	173.26622	-666.30902	298.64819	160.69888	-628.85419	306.46790	161.60780	-560.41547	261.31128	165.03508	-527.97437	304.37811	146.52362	-729.42853	95.71609	1845.40332	-710.30719	245.28407	645.94470	-678.13843	266.08542	748.11285	-517.75104	-72.19764	142.78470	-796.47552	171.69530	184.29604	-682.75909	137.80109	574.91730				-767.82751	-4.28598	208.40854	-794.57166	56.41177	175.14581	-756.26941	-35.48853	491.18692	-664.77716	-67.52200	162.87164	-876.02838	-78.54763	141.55200	-568.38098	-10.75613	1049.26233	-673.76013	-51.79195	716.75995	-560.40692	-39.82294	163.39178	-623.85883	-78.66300	158.73932	-772.19061	83.92947	1054.01343	-564.69122	-3.84541	801.34955	-711.15234	151.36566	216.29428	-704.50964	-26.29111	567.52527	-675.87598	172.16812	156.55478	
442	8.820	-684.74438	-29.95492	616.07159	-668.65002	200.78726	532.96735	-627.39301	275.55154	877.06171	-624.45807	-72.47272	868.77881	-570.79651	216.71764	1069.12354	-686.95056	-77.95124	1537.46680	-700.08704	281.63803	1538.42773	-719.80347	240.80885	578.86481	-659.27032	17.24365	518.54340	-764.46936	250.04404	506.73892	-716.57245	78.38702	216.65816	-604.07794	100.30325	1432.46362	-571.55676	210.60216	814.43188	-770.66571	221.72070	205.99998	-882.42224	296.21420	144.80258	-675.40009	54.61946	158.05573	-603.38763	19.24411	166.89418	-680.84296	79.39321	577.57788	-594.36572	222.41580	173.34091	-666.35016	298.66385	160.76268	-628.89844	306.41818	161.78619	-560.43036	261.24408	165.11305	-528.06250	304.48767	146.72304	-729.46271	95.58843	1845.39551	-710.22809	245.11484	645.80774	-678.59686	266.05859	748.29120	-517.92944	-72.07547	142.59494	-796.47552	171.69530	184.29604	-682.75909	137.80109	574.91730				-767.74371	-4.45303	208.15688	-794.57166	56.41177	175.14581	-756.60474	-35.78310	490.86316	-665.01837	-67.51821	162.65251	-876.13934	-78.71100	141.67271	-568.68652	-10.84857	1049.05286	-674.06116	-52.27232	716.63239	-560.48297	-39.89445	163.36063	-624.02057	-78.62337	158.53406	-772.21600	83.85815	1053.90320	-564.89618	-3.92446	801.29773	-711.06946	151.32591	216.22974	-705.05115	-26.66927	567.37781	-676.05804	172.37886	156.42813	
